<svg width="22" height="22" viewBox="0 0 22 22" fill="none" xmlns="http://www.w3.org/2000/svg">
<path d="M20 0.5H2C1.60218 0.5 1.22064 0.658035 0.93934 0.93934C0.658035 1.22064 0.5 1.60218 0.5 2V20C0.5 20.3978 0.658035 20.7794 0.93934 21.0607C1.22064 21.342 1.60218 21.5 2 21.5H10.5V13.5H8.5V10.5H10.5V8.5C10.5 7.43913 10.9214 6.42172 11.6716 5.67157C12.4217 4.92143 13.4391 4.5 14.5 4.5H17.5V7.5H14.5C14.2348 7.5 13.9804 7.60536 13.7929 7.79289C13.6054 7.98043 13.5 8.23478 13.5 8.5V10.5H17.5L17 13.5H13.5V21.5H20C20.3978 21.5 20.7794 21.342 21.0607 21.0607C21.342 20.7794 21.5 20.3978 21.5 20V2C21.5 1.60218 21.342 1.22064 21.0607 0.93934C20.7794 0.658035 20.3978 0.5 20 0.5Z" stroke="#CCCCCC" stroke-linecap="round" stroke-linejoin="round"/>
</svg>
